<svg width="859" height="696" viewBox="0 0 859 696" fill="none" xmlns="http://www.w3.org/2000/svg">
<path d="M349 125L397.5 81.5L309.5 0H130.5L0 116.5V346L204.5 509.5L285 440.25L365.5 371L316 325L204.5 420.5L70 314V143.5L156 66H283L349 125Z" fill="white"/>
<path d="M492 229V125L365.5 229L559 402.5V589L431 696L227.5 527L279 481.5L431 607L492 556V430.5L299.5 260V201L530 0H559.5V229H492Z" fill="white"/>
<path fill-rule="evenodd" clip-rule="evenodd" d="M583.5 569.5V0H730.5L858.5 117V345.5L583.5 569.5ZM707 68H651V430.5L791 316.5V146L707 68Z" fill="white"/>
</svg>
