<svg width="868" height="707" viewBox="0 0 868 707" fill="none" xmlns="http://www.w3.org/2000/svg">
<path d="M353.5 129.5L402 86L314 4.5H135L4.5 121V350.5L209 514L289.5 444.75L370 375.5L320.5 329.5L209 425L74.5 318.5V148L160.5 70.5H287.5L353.5 129.5ZM496.5 233.5V129.5L370 233.5L563.5 407V593.5L435.5 700.5L232 531.5L283.5 486L435.5 611.5L496.5 560.5V435L304 264.5V205.5L534.5 4.5H564V233.5H496.5ZM588 574V4.5H735L863 121.5V350L588 574ZM655.5 72.5H711.5L795.5 150.5V321L655.5 435V72.5Z" stroke="white" stroke-width="9"/>
</svg>
